<svg xmlns="http://www.w3.org/2000/svg" width="1080" height="1440" viewBox="0 0 1080 1440">
  <style>
    .title { font: 700 58px 'PingFang SC','Hiragino Sans GB','Microsoft YaHei',sans-serif; fill: #0f172a; }
    .subtitle { font: 400 28px 'PingFang SC','Hiragino Sans GB','Microsoft YaHei',sans-serif; fill: #334155; }
    .body { font: 400 34px 'PingFang SC','Hiragino Sans GB','Microsoft YaHei',sans-serif; fill: #1e293b; }
    .small { font: 400 24px 'PingFang SC','Hiragino Sans GB','Microsoft YaHei',sans-serif; fill: #475569; }
    .cardTitle { font: 700 26px 'JetBrains Mono','Menlo',monospace; fill: #2563eb; }
  </style>
<rect width="1080" height="1440" fill="#f7fbff"/>
<rect x="0" y="0" width="1080" height="280" rx="0" fill="#2563eb"/>
<circle cx="930" cy="145" r="86" fill="#93c5fd" opacity="0.35"/>
<circle cx="845" cy="95" r="28" fill="#dbeafe" opacity="0.7"/>
<text class="title" x="72" y="95" fill="#ffffff">AI来了 2026年03月 04 -</text>
<text class="title" x="72" y="165" fill="#ffffff"> 引爆未来｜月球 Wi-Fi、牙齿听</text>
<text class="title" x="72" y="235" fill="#ffffff">音乐、AI 朋友圈</text>
<rect x="72" y="340" width="936" height="240" rx="32" fill="#ffffff"/>
<text class="body" x="110" y="418">面对前沿科技新闻，最重要的能力不是马上相信或</text>
<text class="body" x="110" y="472">马上否定，而是学会给它分级：已经落地、正在试</text>
<text class="body" x="110" y="526">验，还是暂时属于大胆想象。</text>
<text class="small" x="74" y="640">本讲重点</text>
<rect x="72" y="680" width="936" height="180" rx="32" fill="#e0f2fe"/>
<text class="body" x="110" y="750">1. 先找实验</text>
<text class="body" x="110" y="800">2. 再看距离日常有多远</text>
<text class="body" x="110" y="850">3. 别被标题带着跑</text>
<rect x="72" y="920" width="936" height="320" rx="32" fill="#ffffff"/>
<text class="subtitle" x="110" y="985">今天先记住这句话</text>
<text class="small" x="110" y="1045">看到月球 Wi-Fi、用牙齿听音乐、AI 有朋友</text>
<text class="small" x="110" y="1089">圈这些说法时，大脑会先被点亮一下。可越是让人惊讶</text>
<text class="small" x="110" y="1133">的技术新闻，越适合慢下来问一句：这到底已经做到哪</text>
<text class="small" x="110" y="1177">一步了？</text>
<rect x="72" y="1288" width="250" height="70" rx="20" fill="#2563eb"/>
<text class="cardTitle" x="114" y="1334" fill="#ffffff">AI CAT KIDS</text>
</svg>
