<svg xmlns="http://www.w3.org/2000/svg" width="1080" height="1440" viewBox="0 0 1080 1440">
  <style>
    .title { font: 700 58px 'PingFang SC','Hiragino Sans GB','Microsoft YaHei',sans-serif; fill: #0f172a; }
    .subtitle { font: 400 28px 'PingFang SC','Hiragino Sans GB','Microsoft YaHei',sans-serif; fill: #334155; }
    .body { font: 400 34px 'PingFang SC','Hiragino Sans GB','Microsoft YaHei',sans-serif; fill: #1e293b; }
    .small { font: 400 24px 'PingFang SC','Hiragino Sans GB','Microsoft YaHei',sans-serif; fill: #475569; }
    .cardTitle { font: 700 26px 'JetBrains Mono','Menlo',monospace; fill: #2563eb; }
  </style>
<rect width="1080" height="1440" fill="#f7fbff"/>
<rect x="0" y="0" width="1080" height="280" rx="0" fill="#2563eb"/>
<circle cx="930" cy="145" r="86" fill="#93c5fd" opacity="0.35"/>
<circle cx="845" cy="95" r="28" fill="#dbeafe" opacity="0.7"/>
<text class="title" x="72" y="95" fill="#ffffff">AI来了 2026年03月 06 -</text>
<text class="title" x="72" y="165" fill="#ffffff"> 巧用思维｜用“漏斗分析法”找出店铺</text>
<text class="title" x="72" y="235" fill="#ffffff">隐形漏洞</text>
<rect x="72" y="340" width="936" height="240" rx="32" fill="#ffffff"/>
<text class="body" x="110" y="418">漏斗分析法的关键，不是记住“漏斗”这个词，而</text>
<text class="body" x="110" y="472">是学会把一个过程分成几步，看看人是在哪一步慢</text>
<text class="body" x="110" y="526">慢流失的。</text>
<text class="small" x="74" y="640">本讲重点</text>
<rect x="72" y="680" width="936" height="180" rx="32" fill="#e0f2fe"/>
<text class="body" x="110" y="750">1. 先拆步骤</text>
<text class="body" x="110" y="800">2. 再看哪一步掉得最多</text>
<text class="body" x="110" y="850">3. 最后改最关键的地方</text>
<rect x="72" y="920" width="936" height="320" rx="32" fill="#ffffff"/>
<text class="subtitle" x="110" y="985">今天先记住这句话</text>
<text class="small" x="110" y="1045">同一条街上，两家店卖的东西差不多，一家总是排队，</text>
<text class="small" x="110" y="1089">另一家却冷冷清清。遇到这种现象，很多人只会说“它</text>
<text class="small" x="110" y="1133">家不行”，可更有用的做法是继续往下追问：到底是哪</text>
<text class="small" x="110" y="1177">一步出了问题？</text>
<rect x="72" y="1288" width="250" height="70" rx="20" fill="#2563eb"/>
<text class="cardTitle" x="114" y="1334" fill="#ffffff">AI CAT KIDS</text>
</svg>
