<svg xmlns="http://www.w3.org/2000/svg" width="1080" height="1440" viewBox="0 0 1080 1440">
  <style>
    .title { font: 700 58px 'PingFang SC','Hiragino Sans GB','Microsoft YaHei',sans-serif; fill: #0f172a; }
    .subtitle { font: 400 28px 'PingFang SC','Hiragino Sans GB','Microsoft YaHei',sans-serif; fill: #334155; }
    .body { font: 400 34px 'PingFang SC','Hiragino Sans GB','Microsoft YaHei',sans-serif; fill: #1e293b; }
    .small { font: 400 24px 'PingFang SC','Hiragino Sans GB','Microsoft YaHei',sans-serif; fill: #475569; }
    .cardTitle { font: 700 26px 'JetBrains Mono','Menlo',monospace; fill: #2563eb; }
  </style>
<rect width="1080" height="1440" fill="#f7fbff"/>
<rect x="0" y="0" width="1080" height="280" rx="0" fill="#2563eb"/>
<circle cx="930" cy="145" r="86" fill="#93c5fd" opacity="0.35"/>
<circle cx="845" cy="95" r="28" fill="#dbeafe" opacity="0.7"/>
<text class="title" x="72" y="95" fill="#ffffff">AI来了 2026年03月 02 -</text>
<text class="title" x="72" y="165" fill="#ffffff"> 热搜云图｜“开”着飞机去上学</text>
<rect x="72" y="340" width="936" height="240" rx="32" fill="#ffffff"/>
<text class="body" x="110" y="418">面对未来交通新闻，既要保留好奇，也要学会分层</text>
<text class="body" x="110" y="472">判断。飞行器能飞起来，不等于它已经适合每个人</text>
<text class="body" x="110" y="526">每天通勤。</text>
<text class="small" x="74" y="640">本讲重点</text>
<rect x="72" y="680" width="936" height="180" rx="32" fill="#e0f2fe"/>
<text class="body" x="110" y="750">1. 会飞不等于能天天用</text>
<text class="body" x="110" y="800">2. 技术要看安全和规则</text>
<text class="body" x="110" y="850">3. 热搜和现实要分开看</text>
<rect x="72" y="920" width="936" height="320" rx="32" fill="#ffffff"/>
<text class="subtitle" x="110" y="985">今天先记住这句话</text>
<text class="small" x="110" y="1045">看到“开着飞机去上学”这种标题，很多人第一反应是</text>
<text class="small" x="110" y="1089">：未来是不是马上就要来了？可真正重要的问题不是激</text>
<text class="small" x="110" y="1133">动一下，而是问清楚：这是新闻标题里的想象，还是已</text>
<text class="small" x="110" y="1177">经能安全地天天使用的交通工具？</text>
<rect x="72" y="1288" width="250" height="70" rx="20" fill="#2563eb"/>
<text class="cardTitle" x="114" y="1334" fill="#ffffff">AI CAT KIDS</text>
</svg>
