<svg xmlns="http://www.w3.org/2000/svg" width="1080" height="1440" viewBox="0 0 1080 1440">
  <style>
    .title { font: 700 58px 'PingFang SC','Hiragino Sans GB','Microsoft YaHei',sans-serif; fill: #0f172a; }
    .subtitle { font: 400 28px 'PingFang SC','Hiragino Sans GB','Microsoft YaHei',sans-serif; fill: #334155; }
    .body { font: 400 34px 'PingFang SC','Hiragino Sans GB','Microsoft YaHei',sans-serif; fill: #1e293b; }
    .small { font: 400 24px 'PingFang SC','Hiragino Sans GB','Microsoft YaHei',sans-serif; fill: #475569; }
    .cardTitle { font: 700 26px 'JetBrains Mono','Menlo',monospace; fill: #2563eb; }
  </style>
<rect width="1080" height="1440" fill="#f7fbff"/>
<rect x="0" y="0" width="1080" height="280" rx="0" fill="#2563eb"/>
<circle cx="930" cy="145" r="86" fill="#93c5fd" opacity="0.35"/>
<circle cx="845" cy="95" r="28" fill="#dbeafe" opacity="0.7"/>
<text class="title" x="72" y="95" fill="#ffffff">AI来了 2026年03月 12 -</text>
<text class="title" x="72" y="165" fill="#ffffff"> 未来职业｜绿色产业里的隐藏机会</text>
<rect x="72" y="340" width="936" height="240" rx="32" fill="#ffffff"/>
<text class="body" x="110" y="418">真正重要的职业，不一定都长在最热闹的地方。绿</text>
<text class="body" x="110" y="472">色产业里那些看起来低调的工作，往往正连接着未</text>
<text class="body" x="110" y="526">来城市、能源和环境。</text>
<text class="small" x="74" y="640">本讲重点</text>
<rect x="72" y="680" width="936" height="180" rx="32" fill="#e0f2fe"/>
<text class="body" x="110" y="750">1. 回收不是终点</text>
<text class="body" x="110" y="800">2. 再利用才是价值</text>
<text class="body" x="110" y="850">3. 绿色产业也是未来科技</text>
<rect x="72" y="920" width="936" height="320" rx="32" fill="#ffffff"/>
<text class="subtitle" x="110" y="985">今天先记住这句话</text>
<text class="small" x="110" y="1045">很多孩子一听“垃圾回收”就觉得这行业不够酷，可如</text>
<text class="small" x="110" y="1089">果你知道一块电池背后连着巨大的回收产业，一家公司</text>
<text class="small" x="110" y="1133">能把废品重新变成资源，眼光可能就会立刻改变。</text>
<rect x="72" y="1288" width="250" height="70" rx="20" fill="#2563eb"/>
<text class="cardTitle" x="114" y="1334" fill="#ffffff">AI CAT KIDS</text>
</svg>
