<svg xmlns="http://www.w3.org/2000/svg" width="1080" height="1440" viewBox="0 0 1080 1440">
  <style>
    .title { font: 700 58px 'PingFang SC','Hiragino Sans GB','Microsoft YaHei',sans-serif; fill: #0f172a; }
    .subtitle { font: 400 28px 'PingFang SC','Hiragino Sans GB','Microsoft YaHei',sans-serif; fill: #334155; }
    .body { font: 400 34px 'PingFang SC','Hiragino Sans GB','Microsoft YaHei',sans-serif; fill: #1e293b; }
    .small { font: 400 24px 'PingFang SC','Hiragino Sans GB','Microsoft YaHei',sans-serif; fill: #475569; }
    .cardTitle { font: 700 26px 'JetBrains Mono','Menlo',monospace; fill: #2563eb; }
  </style>
<rect width="1080" height="1440" fill="#f7fbff"/>
<rect x="0" y="0" width="1080" height="280" rx="0" fill="#2563eb"/>
<circle cx="930" cy="145" r="86" fill="#93c5fd" opacity="0.35"/>
<circle cx="845" cy="95" r="28" fill="#dbeafe" opacity="0.7"/>
<text class="title" x="72" y="95" fill="#ffffff">AI来了 2026年03月 03 -</text>
<text class="title" x="72" y="165" fill="#ffffff"> 前沿沸点｜机器人背着我们偷偷办了场</text>
<text class="title" x="72" y="235" fill="#ffffff">春晚？</text>
<rect x="72" y="340" width="936" height="240" rx="32" fill="#ffffff"/>
<text class="body" x="110" y="418">舞台上的机器人看起来很独立，背后其实站着一整</text>
<text class="body" x="110" y="472">支人的团队。真正有意思的，不是机器悄悄取代人</text>
<text class="body" x="110" y="526">，而是人怎样把机器变成可靠的伙伴。</text>
<text class="small" x="74" y="640">本讲重点</text>
<rect x="72" y="680" width="936" height="180" rx="32" fill="#e0f2fe"/>
<text class="body" x="110" y="750">1. 台上是机器人</text>
<text class="body" x="110" y="800">2. 台后是工程团队</text>
<text class="body" x="110" y="850">3. 精彩来自协作</text>
<rect x="72" y="920" width="936" height="320" rx="32" fill="#ffffff"/>
<text class="subtitle" x="110" y="985">今天先记住这句话</text>
<text class="small" x="110" y="1045">当你看到机器人在舞台上跳舞、表演甚至和主持人配合</text>
<text class="small" x="110" y="1089">时，很容易冒出一个问题：是不是机器人已经能自己把</text>
<text class="small" x="110" y="1133">一整场晚会办好了？这个问题很酷，但答案没有那么简</text>
<text class="small" x="110" y="1177">单。</text>
<rect x="72" y="1288" width="250" height="70" rx="20" fill="#2563eb"/>
<text class="cardTitle" x="114" y="1334" fill="#ffffff">AI CAT KIDS</text>
</svg>
