<svg xmlns="http://www.w3.org/2000/svg" width="1080" height="1440" viewBox="0 0 1080 1440">
  <style>
    .title { font: 700 58px 'PingFang SC','Hiragino Sans GB','Microsoft YaHei',sans-serif; fill: #0f172a; }
    .subtitle { font: 400 28px 'PingFang SC','Hiragino Sans GB','Microsoft YaHei',sans-serif; fill: #334155; }
    .body { font: 400 34px 'PingFang SC','Hiragino Sans GB','Microsoft YaHei',sans-serif; fill: #1e293b; }
    .small { font: 400 24px 'PingFang SC','Hiragino Sans GB','Microsoft YaHei',sans-serif; fill: #475569; }
    .cardTitle { font: 700 26px 'JetBrains Mono','Menlo',monospace; fill: #2563eb; }
  </style>
<rect width="1080" height="1440" fill="#f7fbff"/>
<rect x="0" y="0" width="1080" height="280" rx="0" fill="#2563eb"/>
<circle cx="930" cy="145" r="86" fill="#93c5fd" opacity="0.35"/>
<circle cx="845" cy="95" r="28" fill="#dbeafe" opacity="0.7"/>
<text class="title" x="72" y="95" fill="#ffffff">AI来了 2026年03月 10 -</text>
<text class="title" x="72" y="165" fill="#ffffff"> 人物志｜王兴兴与风靡全球的机器人</text>
<rect x="72" y="340" width="936" height="240" rx="32" fill="#ffffff"/>
<text class="body" x="110" y="418">成长不是只有一把尺子。成绩重要，但兴趣、实践</text>
<text class="body" x="110" y="472">、持续投入和解决真实问题的能力，同样能塑造一</text>
<text class="body" x="110" y="526">个人。</text>
<text class="small" x="74" y="640">本讲重点</text>
<rect x="72" y="680" width="936" height="180" rx="32" fill="#e0f2fe"/>
<text class="body" x="110" y="750">1. 别只看一次分数</text>
<text class="body" x="110" y="800">2. 看长期积累</text>
<text class="body" x="110" y="850">3. 看他把兴趣做成了什么</text>
<rect x="72" y="920" width="936" height="320" rx="32" fill="#ffffff"/>
<text class="subtitle" x="110" y="985">今天先记住这句话</text>
<text class="small" x="110" y="1045">当你听到“高考英语 28 分，却造出了风靡全球的</text>
<text class="small" x="110" y="1089">机器人”时，很容易只记住那个惊人的数字。可真正值</text>
<text class="small" x="110" y="1133">得孩子读的，不是“偏科也没关系”这么简单，而是一</text>
<text class="small" x="110" y="1177">个人怎样把自己的热爱做成长期积累。</text>
<rect x="72" y="1288" width="250" height="70" rx="20" fill="#2563eb"/>
<text class="cardTitle" x="114" y="1334" fill="#ffffff">AI CAT KIDS</text>
</svg>
